<svg width="1600" height="900" viewBox="0 0 1600 900" fill="none" xmlns="http://www.w3.org/2000/svg">
  <rect width="1600" height="900" rx="48" fill="#F8F4EC"/>
  <g opacity="0.98">
    <rect x="130" y="232" width="420" height="520" rx="62" fill="#F2F6EE" stroke="#D7E2D4"/>
    <rect x="166" y="270" width="348" height="444" rx="34" fill="#FFFFFF"/>
    <rect x="194" y="314" width="206" height="12" rx="6" fill="#294535" opacity="0.65"/>
    <rect x="194" y="340" width="146" height="10" rx="5" fill="#294535" opacity="0.25"/>
    <rect x="194" y="382" width="292" height="286" rx="20" fill="#ECF2E7"/>
  </g>
  <g>
    <rect x="500" y="122" width="710" height="640" rx="54" fill="#EEF3E8" stroke="#D2DECE"/>
    <rect x="548" y="168" width="614" height="548" rx="36" fill="#FCFCF9"/>
    <rect x="590" y="228" width="312" height="14" rx="7" fill="#2D4838" opacity="0.72"/>
    <rect x="590" y="255" width="214" height="12" rx="6" fill="#2D4838" opacity="0.26"/>
    <rect x="590" y="300" width="530" height="168" rx="24" fill="#EDF3E8"/>
    <rect x="590" y="496" width="252" height="178" rx="20" fill="#F7FAF4"/>
    <rect x="868" y="496" width="252" height="178" rx="20" fill="#F1F6ED"/>
  </g>
  <g>
    <rect x="1190" y="250" width="280" height="500" rx="72" fill="#EFF4E8" stroke="#D1DDCD"/>
    <rect x="1220" y="284" width="220" height="430" rx="40" fill="#FFFFFF"/>
    <rect x="1248" y="330" width="122" height="12" rx="6" fill="#294535" opacity="0.68"/>
    <rect x="1248" y="354" width="90" height="10" rx="5" fill="#294535" opacity="0.28"/>
    <rect x="1248" y="392" width="164" height="276" rx="22" fill="#EAF1E6"/>
  </g>
</svg>
