<svg width="1400" height="980" viewBox="0 0 1400 980" fill="none" xmlns="http://www.w3.org/2000/svg">
  <rect width="1400" height="980" rx="64" fill="#F7F4EC"/>
  <rect x="54" y="54" width="1292" height="872" rx="38" fill="#EEF2E8" stroke="#D9E3D4"/>
  <rect x="104" y="114" width="430" height="82" rx="20" fill="#FDFCF8"/>
  <rect x="122" y="138" width="218" height="14" rx="7" fill="#355441" opacity="0.88"/>
  <rect x="122" y="162" width="160" height="12" rx="6" fill="#355441" opacity="0.34"/>
  <rect x="104" y="232" width="720" height="620" rx="26" fill="#FCFCF9"/>
  <rect x="134" y="272" width="286" height="12" rx="6" fill="#486553" opacity="0.45"/>
  <rect x="134" y="300" width="212" height="12" rx="6" fill="#486553" opacity="0.22"/>
  <rect x="134" y="336" width="660" height="148" rx="18" fill="#F1F5EC"/>
  <rect x="134" y="510" width="316" height="144" rx="18" fill="#F8FAF5"/>
  <rect x="478" y="510" width="316" height="144" rx="18" fill="#F3F7EE"/>
  <rect x="852" y="114" width="444" height="738" rx="28" fill="#FFFFFF"/>
  <rect x="884" y="156" width="220" height="12" rx="6" fill="#2F4C3A" opacity="0.7"/>
  <rect x="884" y="182" width="148" height="12" rx="6" fill="#2F4C3A" opacity="0.3"/>
  <rect x="884" y="226" width="380" height="102" rx="16" fill="#EEF3E8"/>
  <rect x="884" y="350" width="380" height="102" rx="16" fill="#F4F7F1"/>
  <rect x="884" y="474" width="380" height="102" rx="16" fill="#EEF3E8"/>
  <rect x="884" y="598" width="380" height="102" rx="16" fill="#F4F7F1"/>
</svg>
