<svg width="1440" height="980" viewBox="0 0 1440 980" fill="none" xmlns="http://www.w3.org/2000/svg">
  <rect width="1440" height="980" rx="56" fill="#F8F5EE"/>
  <rect x="44" y="44" width="1352" height="892" rx="42" fill="#EDF2E8" stroke="#D7E1D3"/>
  <rect x="94" y="100" width="520" height="780" rx="28" fill="#FCFCF9"/>
  <rect x="132" y="146" width="290" height="14" rx="7" fill="#355542" opacity="0.7"/>
  <rect x="132" y="174" width="180" height="12" rx="6" fill="#355542" opacity="0.3"/>
  <rect x="132" y="226" width="444" height="112" rx="18" fill="#EEF3E9"/>
  <rect x="132" y="360" width="444" height="112" rx="18" fill="#F4F7F1"/>
  <rect x="132" y="494" width="444" height="112" rx="18" fill="#EEF3E9"/>
  <rect x="132" y="628" width="444" height="112" rx="18" fill="#F4F7F1"/>
  <rect x="660" y="100" width="680" height="780" rx="28" fill="#FFFFFF"/>
  <rect x="708" y="156" width="320" height="14" rx="7" fill="#2B4838" opacity="0.7"/>
  <rect x="708" y="184" width="216" height="12" rx="6" fill="#2B4838" opacity="0.28"/>
  <rect x="708" y="236" width="584" height="220" rx="24" fill="#ECF2E8"/>
  <rect x="736" y="270" width="240" height="14" rx="7" fill="#2B4838" opacity="0.54"/>
  <rect x="736" y="296" width="190" height="12" rx="6" fill="#2B4838" opacity="0.26"/>
  <rect x="708" y="486" width="276" height="334" rx="22" fill="#F6F9F3"/>
  <rect x="1016" y="486" width="276" height="334" rx="22" fill="#F0F5EC"/>
</svg>
